HIERARCHY
ROOT Hips
{
	OFFSET 0.000000 97.167313 0.000000
	CHANNELS 6 Xposition Yposition Zposition Xrotation Yrotation Zrotation
	JOINT Spine
	{
		OFFSET 0.000000 13.784798 0.064400
		CHANNELS 3 Xrotation Yrotation Zrotation
		JOINT Spine1
		{
			OFFSET 0.000000 12.037903 0.404700
			CHANNELS 3 Xrotation Yrotation Zrotation
			JOINT Spine2
			{
				OFFSET 0.000000 17.795601 0.420200
				CHANNELS 3 Xrotation Yrotation Zrotation
				JOINT Neck
				{
					OFFSET 0.000000 39.131302 11.954600
					CHANNELS 3 Xrotation Yrotation Zrotation
					JOINT Head
					{
						OFFSET 0.000000 14.456192 15.627699
						CHANNELS 3 Xrotation Yrotation Zrotation
						JOINT HeadTop_End
						{
							OFFSET 0.000000 15.703506 7.603401
							CHANNELS 3 Xrotation Yrotation Zrotation
							End Site
							{
								OFFSET 0.000000 17.447403 0.000000
							}
						}
					}
				}
				JOINT LeftShoulder
				{
					OFFSET 17.399500 24.608795 1.168800
					CHANNELS 3 Xrotation Yrotation Zrotation
					JOINT LeftArm
					{
						OFFSET 18.980635 5.765305 1.818600
						CHANNELS 3 Xrotation Yrotation Zrotation
						JOINT LeftForeArm
						{
							OFFSET 49.290169 0.000000 0.000000
							CHANNELS 3 Xrotation Yrotation Zrotation
							JOINT LeftHand
							{
								OFFSET 31.562012 0.000000 0.000000
								CHANNELS 3 Xrotation Yrotation Zrotation
								JOINT LeftHandThumb1
								{
									OFFSET 6.133995 -4.388519 7.076070
									CHANNELS 3 Xrotation Yrotation Zrotation
									JOINT LeftHandThumb2
									{
										OFFSET 6.037666 -3.485840 3.485847
										CHANNELS 3 Xrotation Yrotation Zrotation
										JOINT LeftHandThumb3
										{
											OFFSET 6.496506 -3.750763 3.750761
											CHANNELS 3 Xrotation Yrotation Zrotation
											JOINT LeftHandThumb4
											{
												OFFSET 5.616882 -3.242905 3.242910
												CHANNELS 3 Xrotation Yrotation Zrotation
												End Site
												{
													OFFSET -1.254608 7.132141 0.375429
												}
											}
										}
									}
								}
								JOINT LeftHandPinky1
								{
									OFFSET 18.920792 -0.453171 -11.426712
									CHANNELS 3 Xrotation Yrotation Zrotation
									JOINT LeftHandPinky2
									{
										OFFSET 4.919586 0.000000 0.000000
										CHANNELS 3 Xrotation Yrotation Zrotation
										JOINT LeftHandPinky3
										{
											OFFSET 5.233047 0.000000 0.000000
											CHANNELS 3 Xrotation Yrotation Zrotation
											JOINT LeftHandPinky4
											{
												OFFSET 5.571716 0.000000 0.000000
												CHANNELS 3 Xrotation Yrotation Zrotation
												End Site
												{
													OFFSET -3.459808 4.342407 -0.466164
												}
											}
										}
									}
								}
								JOINT LeftHandRing1
								{
									OFFSET 22.726120 -0.094986 -6.500475
									CHANNELS 3 Xrotation Yrotation Zrotation
									JOINT LeftHandRing2
									{
										OFFSET 6.408615 0.000000 0.000000
										CHANNELS 3 Xrotation Yrotation Zrotation
										JOINT LeftHandRing3
										{
											OFFSET 6.150223 0.000000 0.000000
											CHANNELS 3 Xrotation Yrotation Zrotation
											JOINT LeftHandRing4
											{
												OFFSET 6.145386 0.000000 0.000000
												CHANNELS 3 Xrotation Yrotation Zrotation
												End Site
												{
													OFFSET -3.671402 4.923981 -0.202372
												}
											}
										}
									}
								}
								JOINT LeftHandMiddle1
								{
									OFFSET 23.373947 0.000000 0.000001
									CHANNELS 3 Xrotation Yrotation Zrotation
									JOINT LeftHandMiddle2
									{
										OFFSET 6.996567 0.000000 0.000000
										CHANNELS 3 Xrotation Yrotation Zrotation
										JOINT LeftHandMiddle3
										{
											OFFSET 7.015945 0.000000 0.000000
											CHANNELS 3 Xrotation Yrotation Zrotation
											JOINT LeftHandMiddle4
											{
												OFFSET 7.721573 0.000000 0.000000
												CHANNELS 3 Xrotation Yrotation Zrotation
												End Site
												{
													OFFSET -4.651108 6.158463 0.251582
												}
											}
										}
									}
								}
								JOINT LeftHandIndex1
								{
									OFFSET 21.310577 -0.490082 6.209344
									CHANNELS 3 Xrotation Yrotation Zrotation
									JOINT LeftHandIndex2
									{
										OFFSET 7.536453 0.000000 0.000000
										CHANNELS 3 Xrotation Yrotation Zrotation
										JOINT LeftHandIndex3
										{
											OFFSET 7.512344 0.000000 0.000000
											CHANNELS 3 Xrotation Yrotation Zrotation
											JOINT LeftHandIndex4
											{
												OFFSET 10.212402 0.000000 0.000001
												CHANNELS 3 Xrotation Yrotation Zrotation
												End Site
												{
													OFFSET -5.180801 8.690506 1.388433
												}
											}
										}
									}
								}
							}
						}
					}
				}
				JOINT RightShoulder
				{
					OFFSET -17.399500 24.608795 1.168800
					CHANNELS 3 Xrotation Yrotation Zrotation
					JOINT RightArm
					{
						OFFSET -18.980635 5.765305 1.818600
						CHANNELS 3 Xrotation Yrotation Zrotation
						JOINT RightForeArm
						{
							OFFSET -49.290169 0.000000 0.000000
							CHANNELS 3 Xrotation Yrotation Zrotation
							JOINT RightHand
							{
								OFFSET -31.562012 0.000000 0.000000
								CHANNELS 3 Xrotation Yrotation Zrotation
								JOINT RightHandThumb1
								{
									OFFSET -6.133995 -4.388519 7.076070
									CHANNELS 3 Xrotation Yrotation Zrotation
									JOINT RightHandThumb2
									{
										OFFSET -6.037666 -3.485840 3.485847
										CHANNELS 3 Xrotation Yrotation Zrotation
										JOINT RightHandThumb3
										{
											OFFSET -6.496506 -3.750763 3.750761
											CHANNELS 3 Xrotation Yrotation Zrotation
											JOINT RightHandThumb4
											{
												OFFSET -5.616882 -3.242905 3.242910
												CHANNELS 3 Xrotation Yrotation Zrotation
												End Site
												{
													OFFSET 1.254608 7.132141 0.375429
												}
											}
										}
									}
								}
								JOINT RightHandIndex1
								{
									OFFSET -21.310577 -0.490082 6.209344
									CHANNELS 3 Xrotation Yrotation Zrotation
									JOINT RightHandIndex2
									{
										OFFSET -7.536453 0.000000 0.000000
										CHANNELS 3 Xrotation Yrotation Zrotation
										JOINT RightHandIndex3
										{
											OFFSET -7.512344 0.000000 0.000000
											CHANNELS 3 Xrotation Yrotation Zrotation
											JOINT RightHandIndex4
											{
												OFFSET -10.212402 0.000000 0.000001
												CHANNELS 3 Xrotation Yrotation Zrotation
												End Site
												{
													OFFSET 5.180801 8.690506 1.388433
												}
											}
										}
									}
								}
								JOINT RightHandMiddle1
								{
									OFFSET -23.373947 0.000000 0.000001
									CHANNELS 3 Xrotation Yrotation Zrotation
									JOINT RightHandMiddle2
									{
										OFFSET -6.996567 0.000000 0.000000
										CHANNELS 3 Xrotation Yrotation Zrotation
										JOINT RightHandMiddle3
										{
											OFFSET -7.015945 0.000000 0.000000
											CHANNELS 3 Xrotation Yrotation Zrotation
											JOINT RightHandMiddle4
											{
												OFFSET -7.721573 0.000000 0.000000
												CHANNELS 3 Xrotation Yrotation Zrotation
												End Site
												{
													OFFSET 4.651108 6.158463 0.251582
												}
											}
										}
									}
								}
								JOINT RightHandRing1
								{
									OFFSET -22.726120 -0.094986 -6.500475
									CHANNELS 3 Xrotation Yrotation Zrotation
									JOINT RightHandRing2
									{
										OFFSET -6.408615 0.000000 0.000000
										CHANNELS 3 Xrotation Yrotation Zrotation
										JOINT RightHandRing3
										{
											OFFSET -6.150223 0.000000 0.000000
											CHANNELS 3 Xrotation Yrotation Zrotation
											JOINT RightHandRing4
											{
												OFFSET -6.145386 0.000000 0.000000
												CHANNELS 3 Xrotation Yrotation Zrotation
												End Site
												{
													OFFSET 3.671402 4.923981 -0.202372
												}
											}
										}
									}
								}
								JOINT RightHandPinky1
								{
									OFFSET -18.920792 -0.453171 -11.426712
									CHANNELS 3 Xrotation Yrotation Zrotation
									JOINT RightHandPinky2
									{
										OFFSET -4.919586 0.000000 0.000000
										CHANNELS 3 Xrotation Yrotation Zrotation
										JOINT RightHandPinky3
										{
											OFFSET -5.233047 0.000000 0.000000
											CHANNELS 3 Xrotation Yrotation Zrotation
											JOINT RightHandPinky4
											{
												OFFSET -5.571716 0.000000 0.000000
												CHANNELS 3 Xrotation Yrotation Zrotation
												End Site
												{
													OFFSET 3.459808 4.342407 -0.466164
												}
											}
										}
									}
								}
							}
						}
					}
				}
			}
		}
	}
	JOINT LeftUpLeg
	{
		OFFSET 19.899099 -7.885101 -3.429500
		CHANNELS 3 Xrotation Yrotation Zrotation
		JOINT LeftLeg
		{
			OFFSET 1.745560 -36.997807 10.304700
			CHANNELS 3 Xrotation Yrotation Zrotation
			JOINT LeftFoot
			{
				OFFSET -1.745558 -29.803308 -13.615400
				CHANNELS 3 Xrotation Yrotation Zrotation
				JOINT LeftToeBase
				{
					OFFSET 1.181900 -18.539904 15.226099
					CHANNELS 3 Xrotation Yrotation Zrotation
					JOINT LeftToe_End
					{
						OFFSET -0.863701 1.402801 16.534700
						CHANNELS 3 Xrotation Yrotation Zrotation
						End Site
						{
							OFFSET 0.000000 16.616566 0.000000
						}
					}
				}
			}
		}
	}
	JOINT RightUpLeg
	{
		OFFSET -19.899099 -7.885101 -3.429500
		CHANNELS 3 Xrotation Yrotation Zrotation
		JOINT RightLeg
		{
			OFFSET -1.745560 -36.997807 10.304700
			CHANNELS 3 Xrotation Yrotation Zrotation
			JOINT RightFoot
			{
				OFFSET 1.745558 -29.803308 -13.615400
				CHANNELS 3 Xrotation Yrotation Zrotation
				JOINT RightToeBase
				{
					OFFSET -1.181900 -18.539904 15.226099
					CHANNELS 3 Xrotation Yrotation Zrotation
					JOINT RightToe_End
					{
						OFFSET 0.863701 1.402801 16.534700
						CHANNELS 3 Xrotation Yrotation Zrotation
						End Site
						{
							OFFSET 0.000000 16.616566 0.000000
						}
					}
				}
			}
		}
	}
}
MOTION
Frames: 5
Frame Time: 0.033333
2.110883 80.815689 -85.404686 -9.351011 -39.008652 -6.230359 6.696505 0.939904 -0.265218 2.184163 0.336845 0.144722 2.182314 0.350434 0.142424 6.589969 4.672593 1.673645 6.300559 28.178570 -9.244906 -0.000001 -0.000000 0.000000 0.346974 -0.508720 -0.303871 -13.764131 -7.731968 -47.498867 0.000076 -76.323218 0.000081 28.492891 3.959218 26.182301 4.891675 7.994789 1.884008 10.475141 36.544323 -16.206473 18.107023 67.043245 3.186412 0.000001 0.000001 0.000000 1.160383 7.315394 -94.148407 8.017667 2.700457 -99.510693 10.792548 5.665898 -124.703982 -0.000003 0.000000 -0.000002 3.127853 6.869489 -89.819645 9.007622 6.545901 -108.040718 8.561907 6.673729 -104.169933 0.000001 0.000000 -0.000000 6.544536 6.872997 -87.274265 9.404151 6.404070 -111.556011 9.208629 6.477434 -109.813077 0.000003 0.000000 0.000004 7.775659 6.956295 -86.152714 10.250123 6.003565 -119.372036 9.029909 6.538628 -108.236423 0.000001 0.000002 -0.000005 0.687364 4.954712 2.158695 3.775497 43.924851 40.253078 0.000008 108.048702 0.000011 -7.809422 10.342907 -5.521480 2.101968 -10.082995 3.633754 25.660785 -30.716699 6.844845 36.126254 -53.497832 18.680835 -0.000003 -0.000003 -0.000000 9.556169 -7.137680 86.157912 10.350214 -6.061966 119.375519 9.118071 -6.602304 108.238814 -0.000001 -0.000003 -0.000001 6.610137 -6.940055 87.289394 9.494182 -6.467122 111.542624 9.295795 -6.532955 109.815338 0.000002 0.000001 0.000001 1.946411 -7.142796 92.181107 8.379102 -6.800009 101.912324 8.643642 -6.731591 104.171668 0.000004 -0.000001 -0.000002 -2.850703 -7.674949 94.127486 8.100975 -6.852390 99.572670 10.897937 -5.720996 124.707752 0.000000 0.000005 0.000006 -20.373006 7.606302 32.144854 36.423671 -4.941858 -2.888631 -5.293757 7.431870 -21.216712 -8.347595 0.000004 0.000006 0.000001 0.000000 -0.000000 -7.433797 -15.890727 -28.480465 35.734372 7.592460 -2.307573 -20.046277 -7.927017 23.433722 -2.013408 0.000051 0.000003 -0.000000 0.000000 0.000000 
1.821317 80.897621 -85.245621 -9.124995 -38.860184 -6.122764 6.550037 0.877534 -0.368718 2.129453 0.314295 0.107231 2.127767 0.327049 0.105052 6.545520 4.719302 1.643439 6.166086 28.362123 -9.165691 -0.000002 0.000000 -0.000000 0.329764 -0.317933 -0.246438 -13.636625 -7.649996 -47.501015 0.000140 -76.352069 0.000104 28.394836 3.975586 26.247281 4.891678 7.994794 1.883999 10.475121 36.544302 -16.206459 18.107040 67.043259 3.186415 -0.000000 0.000001 -0.000002 1.160398 7.315415 -94.148434 8.017695 2.700450 -99.510706 10.792544 5.665892 -124.703941 -0.000003 0.000000 -0.000002 3.127849 6.869498 -89.819658 9.007636 6.545900 -108.040725 8.561912 6.673755 -104.169927 0.000001 -0.000004 0.000003 6.544557 6.873024 -87.274320 9.404172 6.404064 -111.556039 9.208632 6.477420 -109.813077 0.000004 0.000003 0.000004 7.775673 6.956303 -86.152714 10.250114 6.003569 -119.372036 9.029915 6.538652 -108.236410 0.000003 0.000002 -0.000001 0.692727 5.023659 2.099357 4.055580 44.837914 40.868102 -0.000040 108.318194 0.000076 -6.900059 9.570920 -5.998586 2.101969 -10.083000 3.633772 25.660794 -30.716706 6.844842 36.126260 -53.497832 18.680832 -0.000002 -0.000003 -0.000000 9.556171 -7.137674 86.157925 10.350226 -6.061961 119.375546 9.118071 -6.602286 108.238855 -0.000002 0.000002 -0.000001 6.610154 -6.940041 87.289435 9.494156 -6.467111 111.542610 9.295809 -6.532965 109.815358 -0.000001 0.000001 -0.000004 1.946414 -7.142800 92.181128 8.379101 -6.800011 101.912310 8.643648 -6.731597 104.171675 -0.000002 -0.000000 -0.000003 -2.850701 -7.674961 94.127506 8.100960 -6.852409 99.572677 10.897937 -5.721003 124.707739 0.000000 -0.000001 0.000000 -20.256401 7.601881 32.183483 36.130222 -5.018659 -2.791770 -5.302183 7.464964 -21.393913 -8.433960 -0.000008 0.000001 0.000000 -0.000000 -0.000000 -7.066925 -16.122943 -28.311544 35.383453 7.585121 -2.171697 -20.240842 -7.928688 23.320651 -1.961634 0.000022 0.000009 0.000000 -0.000000 -0.000000 
1.516291 80.992126 -85.025406 -8.875549 -38.795102 -6.041939 6.416854 0.981244 -0.432308 2.084218 0.350523 0.083870 2.082387 0.362577 0.081518 6.522079 4.743408 1.588645 5.950346 28.422017 -9.092548 -0.000000 0.000000 -0.000000 0.328010 -0.278402 -0.300335 -13.184697 -7.857918 -47.073841 0.000022 -76.496507 -0.000028 28.335036 4.057876 26.373872 4.891681 7.994803 1.884002 10.475132 36.544299 -16.206459 18.107019 67.043245 3.186420 0.000000 -0.000000 0.000001 1.160379 7.315407 -94.148420 8.017670 2.700477 -99.510686 10.792550 5.665888 -124.703941 -0.000000 -0.000000 -0.000001 3.127866 6.869498 -89.819645 9.007633 6.545874 -108.040731 8.561912 6.673741 -104.169920 -0.000003 0.000001 0.000002 6.544547 6.873006 -87.274286 9.404170 6.404059 -111.556025 9.208621 6.477424 -109.813063 -0.000002 0.000002 0.000002 7.775682 6.956296 -86.152700 10.250120 6.003565 -119.372049 9.029932 6.538625 -108.236423 0.000001 0.000005 -0.000001 0.690608 4.962044 1.950397 4.247477 45.782423 41.575119 0.000031 108.627704 -0.000012 -6.052820 8.748834 -6.384817 2.101971 -10.083008 3.633767 25.660797 -30.716686 6.844860 36.126274 -53.497853 18.680849 -0.000000 -0.000001 -0.000000 9.556181 -7.137675 86.157912 10.350220 -6.061975 119.375533 9.118060 -6.602308 108.238841 -0.000000 -0.000001 -0.000001 6.610160 -6.940046 87.289435 9.494166 -6.467127 111.542624 9.295811 -6.532978 109.815358 -0.000002 0.000003 -0.000008 1.946417 -7.142801 92.181128 8.379090 -6.800007 101.912296 8.643652 -6.731583 104.171668 0.000001 -0.000002 -0.000003 -2.850699 -7.674928 94.127486 8.100955 -6.852400 99.572683 10.897937 -5.721019 124.707766 0.000000 0.000001 0.000006 -20.078781 7.646118 32.269007 35.848702 -5.063496 -2.680432 -5.400021 7.511050 -21.606721 -8.214156 -0.000008 0.000005 -0.000000 -0.000001 0.000000 -6.612622 -16.302922 -28.063267 34.930339 7.469238 -2.090003 -20.374471 -7.975046 23.312595 -2.045931 0.000004 -0.000007 0.000000 -0.000003 -0.000000 
1.217099 81.070557 -84.761543 -8.572964 -38.699012 -5.935542 6.343304 1.082443 -0.522830 2.064141 0.387099 0.055877 2.062091 0.399057 0.053397 6.458732 4.749513 1.582730 5.630733 28.452731 -9.043309 0.000000 0.000000 0.000000 0.325901 -0.271824 -0.244223 -12.694215 -8.097408 -46.583396 0.000011 -76.759155 -0.000023 28.366018 4.194437 26.538381 4.891679 7.994787 1.884010 10.475136 36.544306 -16.206454 18.107030 67.043231 3.186406 0.000000 0.000001 0.000000 1.160377 7.315402 -94.148407 8.017663 2.700454 -99.510713 10.792536 5.665898 -124.703968 -0.000001 0.000002 -0.000007 3.127855 6.869486 -89.819665 9.007626 6.545872 -108.040731 8.561891 6.673755 -104.169940 -0.000001 -0.000004 0.000005 6.544551 6.873008 -87.274293 9.404183 6.404060 -111.556045 9.208637 6.477428 -109.813077 -0.000001 -0.000002 0.000004 7.775668 6.956279 -86.152707 10.250120 6.003572 -119.372036 9.029920 6.538633 -108.236423 -0.000001 -0.000000 0.000001 0.688469 4.917334 1.881148 4.335898 46.776165 42.186093 -0.000015 108.995332 0.000022 -5.034910 7.860191 -7.093046 2.101970 -10.083009 3.633748 25.660778 -30.716676 6.844847 36.126260 -53.497839 18.680851 -0.000001 -0.000002 0.000001 9.556178 -7.137663 86.157919 10.350210 -6.061982 119.375519 9.118085 -6.602306 108.238841 0.000000 -0.000003 -0.000001 6.610163 -6.940037 87.289442 9.494186 -6.467109 111.542651 9.295806 -6.532930 109.815372 -0.000000 0.000000 -0.000004 1.946417 -7.142801 92.181141 8.379086 -6.800001 101.912310 8.643660 -6.731586 104.171661 0.000001 -0.000001 0.000000 -2.850700 -7.674924 94.127486 8.100943 -6.852397 99.572670 10.897930 -5.721004 124.707766 -0.000001 -0.000000 0.000006 -19.910261 7.588882 32.271599 35.668187 -5.007966 -2.466792 -5.573221 7.567787 -21.895978 -7.902461 0.000007 -0.000007 0.000000 0.000000 -0.000000 -6.081784 -16.455946 -27.808419 34.425342 7.245324 -2.027915 -20.499561 -8.066925 23.416313 -2.388854 0.000022 0.000001 0.000000 0.000001 -0.000000 
0.925235 81.122009 -84.480385 -8.037474 -38.572920 -5.590889 6.261840 1.131041 -0.706670 2.051207 0.406073 -0.012792 2.049109 0.417274 -0.015137 6.379751 4.793996 1.529324 5.226323 28.636664 -9.019714 -0.000000 -0.000000 -0.000000 0.322700 -0.255178 -0.179108 -12.614591 -7.868664 -46.456976 0.000117 -77.101040 0.000093 28.469123 4.373874 26.709357 4.891676 7.994775 1.884000 10.475132 36.544333 -16.206456 18.107036 67.043238 3.186402 -0.000000 -0.000001 0.000000 1.160385 7.315383 -94.148420 8.017681 2.700440 -99.510706 10.792532 5.665889 -124.703968 -0.000003 0.000003 -0.000000 3.127848 6.869465 -89.819665 9.007620 6.545889 -108.040738 8.561906 6.673751 -104.169927 -0.000002 -0.000001 0.000003 6.544551 6.873008 -87.274293 9.404171 6.404056 -111.556011 9.208628 6.477429 -109.813063 0.000002 -0.000003 0.000004 7.775659 6.956287 -86.152700 10.250120 6.003579 -119.372022 9.029907 6.538639 -108.236416 -0.000001 0.000003 0.000001 0.683308 4.811094 1.705031 3.978612 48.031021 43.115050 -0.000000 109.185949 0.000007 -3.679133 6.903329 -8.065665 2.101968 -10.083013 3.633754 25.660775 -30.716679 6.844848 36.126257 -53.497839 18.680842 -0.000001 -0.000001 -0.000001 9.556176 -7.137689 86.157898 10.350229 -6.061982 119.375533 9.118067 -6.602307 108.238827 -0.000000 -0.000003 -0.000002 6.610145 -6.940058 87.289421 9.494165 -6.467124 111.542624 9.295812 -6.532959 109.815344 -0.000004 0.000002 -0.000001 1.946428 -7.142808 92.181128 8.379097 -6.799989 101.912324 8.643627 -6.731590 104.171655 0.000001 0.000003 -0.000003 -2.850701 -7.674961 94.127472 8.100960 -6.852397 99.572670 10.897940 -5.720999 124.707752 0.000003 -0.000004 0.000005 -19.874988 7.408031 32.087983 35.528247 -4.786745 -2.234081 -5.736366 7.631646 -22.208900 -7.798469 -0.000003 0.000009 -0.000000 0.000000 0.000000 -5.765637 -16.583165 -27.675990 33.994955 7.010695 -1.995339 -20.665210 -8.190939 23.576261 -2.375457 0.000002 -0.000007 0.000000 -0.000000 0.000000 
